<svg viewBox="0 0 96 96" xmlns="http://www.w3.org/2000/svg" xmlns:xlink="http://www.w3.org/1999/xlink" id="Icons_Envelope_M" overflow="hidden"><style>
.MsftOfcThm_MainLight1_Fill_v2 {
 fill:#FFFFFF; 
}
.MsftOfcResponsive_Stroke_00ffff {
 stroke:#00FFFF; 
}
</style>
<defs></defs><g id="Icons"><path d="M10 21 10 75 86 75 86 21ZM50.122 55.464C48.948 56.631 47.052 56.631 45.878 55.464L13.431 23.017C13.4271 23.0131 13.4272 23.0067 13.4311 23.0029 13.433 23.0011 13.4354 23 13.438 23L82.562 23C82.5675 23.0001 82.5719 23.0046 82.5719 23.0101 82.5718 23.0127 82.5708 23.0152 82.569 23.017ZM35.586 48 12.017 71.569C12.0131 71.5729 12.0067 71.5728 12.0029 71.5689 12.0011 71.567 12 71.5646 12 71.562L12 24.438C12.0001 24.4325 12.0046 24.4281 12.0101 24.4281 12.0127 24.4282 12.0152 24.4292 12.017 24.431ZM37 49.414 44.464 56.878C46.4164 58.8309 49.5822 58.8313 51.5351 56.8789 51.5354 56.8786 51.5357 56.8783 51.536 56.878L59 49.414 82.569 72.983C82.5729 72.9869 82.5728 72.9933 82.5689 72.9971 82.567 72.9989 82.5646 73 82.562 73L13.438 73C13.4325 72.9999 13.4281 72.9954 13.4281 72.9899 13.4282 72.9873 13.4292 72.9848 13.431 72.983ZM60.414 48 83.983 24.431C83.9869 24.4271 83.9933 24.4272 83.9971 24.4311 83.9989 24.433 84 24.4354 84 24.438L84 71.562C83.9999 71.5675 83.9954 71.5719 83.9899 71.5719 83.9873 71.5718 83.9848 71.5708 83.983 71.569Z" class="MsftOfcThm_MainLight1_Fill_v2 MsftOfcResponsive_Stroke_00ffff" stroke="#00FFFF" stroke-width="1.33342" fill="#FFFFFF"/></g></svg>